<?xml version="1.0" encoding="utf-8"?>
<!DOCTYPE svg PUBLIC "-//W3C//DTD SVG 1.1//EN" "http://www.w3.org/Graphics/SVG/1.1/DTD/svg11.dtd">
<svg version="1.1" id="Layer_1" xmlns="http://www.w3.org/2000/svg" xmlns:xlink="http://www.w3.org/1999/xlink" x="0px" y="0px"
	 width="1000px" height="1000px" viewBox="0 0 1000 1000" enable-background="new 0 0 1000 1000" xml:space="preserve">
<circle fill="#213147" cx="500" cy="500" r="500"/>
<rect x="178.019" y="178.019" fill="none" width="620.558" height="620.558"/>
<path fill="#213147" d="M234.117,366.668v243.259c0,15.639,8.191,29.786,21.843,37.729l210.742,121.629
	c13.404,7.696,30.034,7.696,43.439,0l210.741-121.629c13.403-7.694,21.843-22.091,21.843-37.729V366.668
	c0-15.638-8.191-29.787-21.843-37.73L510.142,207.309c-13.405-7.695-30.036-7.695-43.439,0L255.96,328.938
	c-13.404,7.695-21.595,22.092-21.595,37.73H234.117z"/>
<polygon fill="#213147" points="337.377,718.896 358.477,661.309 400.674,696.308 361.207,732.549 "/>
<g>
	<g>
		<g>
			<g>
				<path fill="#12AAFF" d="M550.717,548.007l-32.889,90.239c-0.814,2.448-0.814,5.166,0,7.884l56.536,155.2l65.505-37.78
					l-78.553-215.543C559.415,543.114,552.619,543.114,550.717,548.007z"/>
			</g>
			<g>
				<path fill="#12AAFF" d="M616.767,396.34c-1.903-4.892-8.698-4.892-10.603,0l-32.888,90.239c-0.814,2.447-0.814,5.166,0,7.883
					L665.962,748.6l65.505-37.782l-114.7-314.206V396.34z"/>
			</g>
		</g>
	</g>
	<g>
		<path fill="#9DCCED" d="M500.433,198.738c1.632,0,3.263,0.543,4.62,1.359l249.519,144.057c2.989,1.63,4.62,4.893,4.62,8.154
			v288.113c0,3.263-1.902,6.523-4.62,8.153L505.053,792.632c-1.357,0.816-2.988,1.359-4.62,1.359s-3.262-0.543-4.62-1.359
			L246.295,648.574c-2.99-1.63-4.621-4.891-4.621-8.153V352.036c0-3.262,1.902-6.523,4.621-8.154l249.518-144.057
			c1.358-0.815,2.988-1.359,4.62-1.359l0,0V198.738z M500.433,156.608c-8.969,0-17.667,2.174-25.821,6.795L225.094,307.459
			c-16.037,9.242-25.822,26.094-25.822,44.576V640.15c0,18.481,9.785,35.333,25.822,44.575l249.517,144.059
			c7.882,4.619,16.852,6.794,25.821,6.794c8.97,0,17.668-2.175,25.821-6.794l249.518-144.059
			c16.037-9.242,25.821-26.094,25.821-44.575V352.036c0-18.482-9.784-35.334-25.821-44.576L525.982,163.403
			c-7.882-4.621-16.852-6.795-25.822-6.795l0,0H500.433z"/>
	</g>
	<g>
		<path fill="#FFFFFF" d="M479.232,331.65h-63.331c-4.62,0-8.969,2.99-10.6,7.339L269.669,710.817l65.505,37.782l149.493-409.61
			c1.359-3.805-1.359-7.61-5.164-7.61L479.232,331.65z"/>
		<path fill="#FFFFFF" d="M590.129,331.65h-63.33c-4.622,0-8.971,2.99-10.602,7.339L361.269,763.55l65.505,37.78l168.519-462.341
			c1.359-3.805-1.359-7.61-5.163-7.61V331.65z"/>
	</g>
</g>
</svg>
