<?xml version="1.0" encoding="UTF-8"?>
<svg width="194px" height="194px" viewBox="0 0 194 194" version="1.1" xmlns="http://www.w3.org/2000/svg" xmlns:xlink="http://www.w3.org/1999/xlink">
    <!-- Generator: Sketch 51.3 (57544) - http://www.bohemiancoding.com/sketch -->
    <title>BTC</title>
    <desc>Created with Sketch.</desc>
    <defs></defs>
    <g id="Page-1" stroke="none" stroke-width="1" fill="none" fill-rule="evenodd">
        <g id="Artboard-Copy-2" transform="translate(-3.000000, -3.000000)" fill-rule="nonzero">
            <g id="BTC">
                <path d="M194.058511,123.457516 C181.106996,175.406 128.491845,207.021152 76.5372993,194.066607 C24.6039659,181.115091 -7.01118558,128.49691 5.94639018,76.551455 C18.8918447,24.5969096 71.5069962,-7.02127224 123.44639,5.93024291 C175.397905,18.8817581 207.010027,71.5060005 194.058511,123.457516 Z" id="Shape" fill="#F7931A"></path>
                <path d="M142.755481,86.1847884 C144.685784,73.2817581 134.861542,66.3453944 121.428208,61.7181217 L125.785784,44.2393338 L115.14639,41.5878187 L110.903966,58.6060005 C108.106996,57.9090308 105.234269,57.251455 102.379724,56.5999399 L106.652451,39.4696368 L96.0191175,36.8181217 L91.6585114,54.290849 C89.3433599,53.7635762 87.0706326,53.2423641 84.864572,52.6938793 L84.8766932,52.6393338 L70.2039659,48.9756975 L67.3736629,60.3393338 C67.3736629,60.3393338 75.2676023,62.1484247 75.1009356,62.2605459 C79.4100265,63.3363035 80.1888144,66.1878187 80.0585114,68.4484247 L75.094875,88.3605459 C75.3918447,88.4363035 75.7766932,88.5453944 76.2009356,88.7150914 C75.8463902,88.6272126 75.4676023,88.5302429 75.0766932,88.4363035 L68.1191175,116.330243 C67.5918447,117.639334 66.2554811,119.60297 63.2433599,118.857516 C63.3494205,119.012061 55.5100265,116.927213 55.5100265,116.927213 L50.2282084,129.106 L64.0736629,132.557516 C66.6494205,133.20297 69.1736629,133.878728 71.6585114,134.515091 L67.2554811,152.193879 L77.8827538,154.845394 L82.2433599,137.354485 C85.1463902,138.142364 87.964572,138.869637 90.7221478,139.554485 L86.3766932,156.963576 L97.0160872,159.615091 L101.419117,141.969637 C119.561542,145.40297 133.203966,144.018122 138.94639,127.609031 C143.573663,114.39691 138.716087,106.775697 129.170633,101.806 C136.122148,100.20297 141.358511,95.6302429 142.755481,86.1847884 Z M118.44639,120.272667 C115.158511,133.484788 92.9130568,126.342364 85.7009356,124.551455 L91.5433599,101.130243 C98.7554811,102.930243 121.882754,106.493879 118.44639,120.272667 Z M121.737299,85.9938793 C118.737299,98.0120611 100.222148,91.9060005 94.2160872,90.4090308 L99.5130568,69.1666065 C105.519117,70.6635762 124.861542,73.4575156 121.737299,85.9938793 Z" id="Shape" fill="#FFFFFF"></path>
            </g>
        </g>
    </g>
</svg>