<?xml version="1.0" encoding="utf-8"?>
<!DOCTYPE svg PUBLIC "-//W3C//DTD SVG 1.1//EN" "http://www.w3.org/Graphics/SVG/1.1/DTD/svg11.dtd">
<svg version="1.1" id="katman_1" xmlns="http://www.w3.org/2000/svg" xmlns:xlink="http://www.w3.org/1999/xlink" x="0px" y="0px"
	 width="190.575px" height="190.613px" viewBox="0 0 190.575 190.613" enable-background="new 0 0 190.575 190.613"
	 xml:space="preserve">
<g>
	<path fill="#8247E5" d="M95.25,0L95.25,0c52.65,0,95.325,42.675,95.325,95.325l0,0c0,52.65-42.675,95.288-95.288,95.288l0,0
		C42.638,190.613,0,147.938,0,95.325l0,0C-0.037,42.675,42.638,0,95.25,0z"/>
	<g>
		<g>
			<defs>
				<rect id="SVGID_1_" x="32.138" y="41.212" width="124.912" height="109.463"/>
			</defs>
			<clipPath id="SVGID_2_">
				<use xlink:href="#SVGID_1_"  overflow="visible"/>
			</clipPath>
			<g clip-path="url(#SVGID_2_)">
				<path fill="#FFFFFF" d="M126.487,74.55c-2.287-1.313-5.212-1.313-7.8,0l-18.225,10.8l-12.375,6.862L70.2,102.975
					c-2.288,1.313-5.212,1.313-7.8,0l-13.988-8.513c-2.288-1.313-3.9-3.938-3.9-6.862V71.25c0-2.625,1.313-5.212,3.9-6.862
					L62.4,56.212c2.287-1.313,5.212-1.313,7.8,0l13.987,8.513c2.288,1.313,3.9,3.938,3.9,6.862v10.8l12.375-7.2v-11.1
					c0-2.625-1.313-5.212-3.9-6.862L70.538,41.85c-2.288-1.313-5.212-1.313-7.8,0L36.075,57.563c-2.587,1.313-3.9,3.938-3.9,6.525
					V94.8c0,2.625,1.313,5.212,3.9,6.862l26.362,15.375c2.288,1.313,5.213,1.313,7.8,0l17.887-10.463l12.375-7.199l17.888-10.463
					c2.287-1.313,5.213-1.313,7.8,0l13.987,8.175c2.288,1.313,3.9,3.938,3.9,6.862V120.3c0,2.625-1.313,5.212-3.9,6.862
					l-13.649,8.175c-2.288,1.313-5.213,1.313-7.8,0l-14.025-8.175c-2.287-1.313-3.9-3.938-3.9-6.862v-10.463l-12.375,7.2v10.8
					c0,2.625,1.313,5.213,3.9,6.862l26.362,15.375c2.288,1.313,5.213,1.313,7.8,0l26.363-15.375
					c2.287-1.313,3.899-3.938,3.899-6.862v-31.05c0-2.625-1.313-5.212-3.899-6.862L126.487,74.55z"/>
			</g>
		</g>
	</g>
</g>
</svg>
