<?xml version="1.0" encoding="utf-8"?>
<!DOCTYPE svg PUBLIC "-//W3C//DTD SVG 1.1//EN" "http://www.w3.org/Graphics/SVG/1.1/DTD/svg11.dtd">
<svg version="1.1" id="katman_1" xmlns="http://www.w3.org/2000/svg" xmlns:xlink="http://www.w3.org/1999/xlink" x="0px" y="0px"
	 width="190.575px" height="190.613px" viewBox="0 0 190.575 190.613" enable-background="new 0 0 190.575 190.613"
	 xml:space="preserve">
<g>
	<path fill="#8247E5" d="M177.844,142.928L177.844,142.928c-26.324,45.596-84.619,61.216-130.217,34.891l0,0
		C2.032,151.494-13.556,93.217,12.75,47.653l0,0C39.075,2.058,97.352-13.53,142.916,12.776l0,0
		C188.531,39.069,204.151,97.364,177.844,142.928z"/>
	<g>
		<g>
			<g>
				<defs>
					
						<rect id="SVGID_1_" x="32.627" y="39.655" transform="matrix(0.5 -0.866 0.866 0.5 -34.2 129.5386)" width="124.911" height="109.464"/>
				</defs>
				<clipPath id="SVGID_2_">
					<use xlink:href="#SVGID_1_"  overflow="visible"/>
				</clipPath>
				<g clip-path="url(#SVGID_2_)">
					<path fill="#FFFFFF" d="M97.665,132.705c2.279-1.325,3.742-3.857,3.899-6.756l-0.241-21.184l0.245-14.147l-0.377-20.872
						c0.006-2.639,1.468-5.171,3.899-6.755l14.366-7.857c2.281-1.325,5.36-1.408,7.893,0.054l14.159,8.175
						c2.273,1.313,3.857,3.743,3.993,6.809l0.087,16.202c-0.006,2.637-1.469,5.17-3.9,6.755l-14.365,7.856
						c-2.281,1.324-5.361,1.408-7.893-0.054l-9.354-5.4l0.048,14.317l9.613,5.55c2.272,1.313,5.17,1.47,7.892,0.054l26.327-14.85
						c2.281-1.325,3.743-3.857,3.9-6.756l-0.276-30.946c0.156-2.897-1.46-5.347-3.7-6.641l-26.598-15.356
						c-2.273-1.313-5.17-1.469-7.893-0.053L92.893,55.992c-2.28,1.325-3.742,3.858-3.899,6.755l0.117,20.722l0.048,14.316
						l0.117,20.724c-0.007,2.638-1.47,5.171-3.9,6.755l-14.073,8.025c-2.28,1.324-5.36,1.409-7.894-0.053l-14.16-8.176
						c-2.272-1.313-3.855-3.744-3.992-6.809l-0.255-15.908c0.007-2.639,1.47-5.171,3.899-6.755l14.093-8.059
						c2.28-1.325,5.36-1.409,7.894,0.053l9.061,5.231L79.9,78.498l-9.354-5.4c-2.272-1.313-5.171-1.469-7.893-0.053L36.158,88.188
						c-2.28,1.325-3.743,3.858-3.899,6.755l0.133,30.519c-0.006,2.638,1.462,5.346,3.994,6.808l26.89,15.524
						c2.273,1.313,5.17,1.47,7.892,0.055L97.665,132.705z"/>
				</g>
			</g>
		</g>
	</g>
</g>
</svg>
