<?xml version="1.0" encoding="UTF-8"?>
<svg width="200px" height="200px" viewBox="0 0 200 200" version="1.1" xmlns="http://www.w3.org/2000/svg" xmlns:xlink="http://www.w3.org/1999/xlink">
    <!-- Generator: Sketch 51.3 (57544) - http://www.bohemiancoding.com/sketch -->
    <title>True USD</title>
    <desc>Created with Sketch.</desc>
    <defs></defs>
    <g id="True-USD" stroke="none" stroke-width="1" fill="none" fill-rule="evenodd">
        <g>
            <path d="M52.2537563,49.5826377 C52.2537563,49.5826377 72.2871452,28.2136895 101.669449,20.8681135 C131.051753,13.5225376 152.420701,21.869783 161.435726,31.5525876 C170.450751,41.2353923 183.472454,47.245409 189.148581,60.9348915 C194.824708,74.624374 197.495826,125.041736 187.813022,136.39399 C178.130217,147.746244 151.419032,195.492487 114.023372,194.490818 C76.6277129,193.489149 53.2554257,185.475793 44.2404007,178.464107 C35.2253756,171.452421 26.8781302,156.427379 26.8781302,156.427379 C26.8781302,156.427379 39.5659432,172.1202 55.9265442,176.794658 C72.2871452,181.469115 97.9966611,183.472454 130.383973,161.101836 C162.771285,138.731219 158.096828,120.033389 156.093489,110.684474 C154.09015,101.335559 153.422371,54.2570952 128.380634,51.9198664 C103.338898,49.5826377 64.9415693,41.2353923 52.2537563,49.5826377" id="Fill-1" fill="#5DC9BC"></path>
            <path d="M100,8.1803005 C75.4741235,8.1803005 52.4160267,17.7312187 35.0734558,35.0737896 C17.7312187,52.4160267 8.1803005,75.4741235 8.1803005,100 C8.1803005,124.525876 17.7312187,147.583973 35.0734558,164.92621 C52.4160267,182.268781 75.4741235,191.819699 100,191.819699 C124.525876,191.819699 147.583973,182.268781 164.92621,164.92621 C182.268781,147.583973 191.819699,124.525876 191.819699,100 C191.819699,75.4741235 182.268781,52.4160267 164.92621,35.0737896 C147.583973,17.7312187 124.525876,8.1803005 100,8.1803005 M100,200 C73.2891486,200 48.1769616,189.598331 29.2894825,170.710518 C10.4016694,151.823038 0,126.710851 0,100 C0,73.2891486 10.4016694,48.1769616 29.2894825,29.2894825 C48.1769616,10.4016694 73.2891486,0 100,0 C126.710851,0 151.823038,10.4016694 170.710518,29.2894825 C189.598331,48.1769616 200,73.2891486 200,100 C200,126.710851 189.598331,151.823038 170.710518,170.710518 C151.823038,189.598331 126.710851,200 100,200" id="Fill-3" fill="#3D6670"></path>
            <path d="M139.359866,67.9827713 C137.704107,75.6528881 130.992588,81.5607346 123.139165,82.056227 C119.093422,82.3116528 115.022638,82.1730885 110.963205,82.2104841 C110.307112,82.2164942 109.651018,82.2111519 108.775559,82.2111519 L108.775559,84.3450417 C108.774558,99.6979633 108.792922,115.051219 108.766544,130.40414 C108.750184,139.641202 102.613623,146.977763 93.5772287,148.620167 C92.6132888,148.795459 91.6146244,148.7801 90.482404,148.86424 C90.4346578,147.914658 90.3618698,147.150384 90.3622037,146.386444 C90.373222,125.804808 90.3922538,105.223172 90.4082805,84.6415359 C90.4102838,82.2188314 90.406611,82.2111519 87.9685476,82.2104841 C79.2349917,82.2081469 70.5017696,82.2114858 61.7678798,82.2124875 C61.0556928,82.2128214 60.343172,82.2124875 59.2253088,82.2124875 C59.5788982,80.1997997 59.7184641,78.3811018 60.2293155,76.6732554 C62.485409,69.1303506 69.4299833,63.8602337 77.2804007,63.8402003 C97.5842404,63.7877796 117.88808,63.8211686 138.19192,63.8241736 C138.631987,63.8245075 139.072053,63.8682471 139.853022,63.9099833 C139.68975,65.3103172 139.643005,66.6719199 139.359866,67.9827713 M149.34384,50.6558932 C136.163873,37.4759265 118.639666,30.2171619 99.9999332,30.2171619 C81.3602003,30.2171619 63.8363272,37.4759265 50.6560267,50.6558932 C37.4757262,63.8361937 30.2169616,81.3600668 30.2169616,100.000134 C30.2169616,118.639866 37.4757262,136.16374 50.6560267,149.34404 C63.8363272,162.524007 81.3602003,169.783105 99.9999332,169.783105 C118.639666,169.783105 136.163873,162.524007 149.34384,149.34404 C162.52414,136.16374 169.782905,118.639866 169.782905,100.000134 C169.782905,81.3600668 162.52414,63.8361937 149.34384,50.6558932" id="Fill-5" fill="#375963"></path>
            <path d="M138.334057,158.332888 C139.583806,157.507846 140.808848,156.640067 142.009516,155.731219 L138.334057,158.332888 Z" id="Fill-7" fill="#3D6670"></path>
            <path d="M90.7515192,148.848347 C90.6610351,148.854357 90.5748915,148.857362 90.482404,148.864374 C90.4346578,147.914457 90.3618698,147.150518 90.3622037,146.386578 C90.3682137,135.067713 90.3785643,123.748848 90.3875793,112.429983 L59.5134558,82.212621 L59.2253088,82.212621 C59.2396661,82.1311519 59.2516861,82.0510184 59.2653756,81.9698831 C59.5889149,80.0540234 59.7391653,78.3114524 60.2293155,76.673389 C62.485409,69.1301503 69.4299833,63.8603673 77.2804007,63.84 C97.5842404,63.7875793 117.88808,63.8213022 138.19192,63.8243072 C138.631987,63.8246411 139.072053,63.8680467 139.853022,63.909783 C139.847679,63.9555259 139.843339,64.0009349 139.838331,64.0466778 L169.530484,94.0650417 C168.158197,77.664374 161.115125,62.4273122 149.34384,50.6560267 C136.163873,37.4757262 118.639666,30.2169616 99.9999332,30.2169616 C81.3602003,30.2169616 63.8363272,37.4757262 50.6560267,50.6560267 C37.4757262,63.8363272 30.2169616,81.3602003 30.2169616,99.9999332 C30.2169616,118.639666 37.4757262,136.163873 50.6560267,149.34384 C63.8363272,162.52414 81.3602003,169.782905 99.9999332,169.782905 C103.668047,169.782905 107.291753,169.497763 110.848681,168.945509 L90.7515192,148.848347 Z" id="Fill-9" fill="#3D6670"></path>
            <path d="M90.4825042,148.864307 C90.434424,147.914391 90.3619699,147.150451 90.3623038,146.386511 C90.3733222,125.804875 90.39202,105.223239 90.4080467,84.6412688 C90.4100501,82.2185643 90.4060434,82.2112187 87.9686477,82.2105509 C79.2347579,82.2082137 70.5015359,82.2115526 61.76798,82.2125543 C61.0554591,82.2128881 60.3429382,82.2125543 59.225409,82.2125543 C59.5786644,80.1998664 59.7182304,78.3808347 60.2294157,76.6729883 C62.4851753,69.1300835 69.4297496,63.8603005 77.2801669,63.8402671 C97.5843406,63.7875125 117.88818,63.8212354 138.19202,63.8242404 C138.632087,63.8245743 139.07182,63.8683139 139.852788,63.9100501 C139.68985,65.310384 139.642771,66.6719866 139.359967,67.9828381 C137.704207,75.652621 130.992688,81.5608013 123.139265,82.0562938 C119.093189,82.3117195 115.022738,82.1731553 110.963306,82.2105509 C110.307212,82.2165609 109.651119,82.2112187 108.775659,82.2112187 L108.775659,84.3451085 C108.774658,99.6980301 108.793022,115.051285 108.766644,130.404541 C108.750284,139.641269 102.613723,146.97783 93.5773289,148.620234 C92.613389,148.795526 91.6147245,148.780167 90.4825042,148.864307" id="Fill-11" fill="#FFFFFF"></path>
        </g>
    </g>
</svg>